<svg width="23" height="17" viewBox="0 0 23 17" fill="none" xmlns="http://www.w3.org/2000/svg">
<path d="M5.54 16.52C4.06 16.52 2.86 16 1.94 14.96C1.06 13.88 0.62 12.48 0.62 10.76C0.62 8.52 1.28 6.44 2.6 4.52C3.92 2.56 5.56 1.1 7.52 0.14L7.88 0.859998C7.04 1.5 6.3 2.32 5.66 3.32C5.02 4.32 4.56 5.56 4.28 7.04L5.54 7.34C6.94 7.66 8.02 8.26 8.78 9.14C9.58 9.98 9.98 11 9.98 12.2C9.98 13.48 9.54 14.52 8.66 15.32C7.82 16.12 6.78 16.52 5.54 16.52ZM18.2 16.52C16.72 16.52 15.52 16 14.6 14.96C13.72 13.88 13.28 12.48 13.28 10.76C13.28 8.52 13.94 6.44 15.26 4.52C16.58 2.56 18.22 1.1 20.18 0.14L20.54 0.859998C19.7 1.5 18.96 2.32 18.32 3.32C17.68 4.32 17.22 5.56 16.94 7.04L18.2 7.34C19.6 7.66 20.68 8.26 21.44 9.14C22.24 9.98 22.64 11 22.64 12.2C22.64 13.48 22.2 14.52 21.32 15.32C20.48 16.12 19.44 16.52 18.2 16.52Z" fill="white"/>
</svg>
