<svg width="91" height="85" viewBox="0 0 91 85" fill="none" xmlns="http://www.w3.org/2000/svg">
<g filter="url(#filter0_d)">
<g clip-path="url(#clip0)">
<path d="M18 0.657715C10.2804 0.657715 4 6.71381 4 14.1577C4 17.418 5.20493 20.4118 7.20787 22.7473C7.213 22.7541 7.21347 22.7626 7.21907 22.7689C8.66527 24.4506 10.4815 25.7398 12.5055 26.5728C12.5288 26.5822 12.5517 26.5926 12.575 26.602C12.7388 26.6686 12.9045 26.7303 13.0706 26.7906C13.1359 26.8144 13.2013 26.8387 13.2675 26.8617C13.4108 26.9112 13.555 26.958 13.7001 27.003C13.793 27.0318 13.8859 27.0601 13.9797 27.0871C14.108 27.124 14.2368 27.1596 14.3665 27.1933C14.4804 27.223 14.5952 27.2505 14.71 27.277C14.8262 27.304 14.9429 27.331 15.06 27.3549C15.1907 27.3819 15.3227 27.4057 15.4553 27.4291C15.5617 27.448 15.6676 27.4678 15.7749 27.4845C15.9219 27.5074 16.0699 27.5254 16.2183 27.5439C16.3139 27.5556 16.4091 27.5691 16.5053 27.579C16.6733 27.5961 16.8427 27.6082 17.0125 27.6195C17.0914 27.6249 17.1698 27.633 17.2491 27.637C17.4969 27.6505 17.7475 27.6577 18 27.6577C18.2525 27.6577 18.5031 27.6505 18.7518 27.6379C18.8311 27.6339 18.9095 27.6258 18.9884 27.6204C19.1583 27.6087 19.3277 27.597 19.4957 27.5799C19.5918 27.57 19.687 27.5565 19.7827 27.5448C19.9311 27.5263 20.079 27.5083 20.226 27.4854C20.3329 27.4687 20.4393 27.4489 20.5457 27.43C20.6777 27.4066 20.8098 27.3828 20.9409 27.3558C21.0581 27.3315 21.1743 27.3049 21.2909 27.2779C21.4057 27.2509 21.5205 27.2235 21.6344 27.1942C21.7641 27.1609 21.8929 27.1249 22.0213 27.088C22.1151 27.061 22.2079 27.0327 22.3008 27.0039C22.4459 26.9589 22.5901 26.9121 22.7334 26.8626C22.7992 26.8396 22.8645 26.8153 22.9303 26.7915C23.0969 26.7312 23.2621 26.6691 23.4259 26.6029C23.4493 26.5935 23.4721 26.5831 23.4955 26.5737C25.5189 25.7407 27.3357 24.4515 28.7819 22.7698C28.7875 22.7635 28.7879 22.7545 28.7931 22.7482C30.7951 20.4118 32 17.418 32 14.1577C32 6.71381 25.7196 0.657715 18 0.657715ZM23.6733 25.5067C23.6663 25.5099 23.6597 25.5135 23.6527 25.5166C23.4861 25.594 23.3167 25.6669 23.1459 25.738C23.1072 25.7538 23.0689 25.77 23.0302 25.7857C22.8809 25.846 22.7297 25.9032 22.5775 25.9581C22.5141 25.981 22.4506 26.0035 22.3867 26.0251C22.2518 26.0715 22.1165 26.116 21.9797 26.1583C21.8948 26.1844 21.8094 26.2092 21.724 26.2335C21.6027 26.2686 21.4809 26.3023 21.3577 26.3338C21.2541 26.3604 21.1495 26.3847 21.045 26.4085C20.9353 26.4337 20.8261 26.4594 20.7155 26.4819C20.5947 26.5066 20.4729 26.5278 20.3515 26.5489C20.2531 26.5665 20.1551 26.5849 20.0557 26.6002C19.9189 26.6209 19.7808 26.6376 19.6431 26.6542C19.5559 26.665 19.4691 26.6776 19.3809 26.6866C19.2236 26.7028 19.0649 26.7132 18.9067 26.724C18.8363 26.7285 18.7663 26.7361 18.6949 26.7397C18.4639 26.7514 18.2324 26.7577 18 26.7577C17.7676 26.7577 17.5361 26.7514 17.3056 26.7397C17.2347 26.7361 17.1647 26.7289 17.0937 26.724C16.9351 26.7136 16.7769 26.7028 16.6196 26.6866C16.5314 26.6776 16.4446 26.665 16.3573 26.6542C16.2197 26.6376 16.0815 26.6209 15.9448 26.6002C15.8454 26.5849 15.7474 26.5665 15.6489 26.5489C15.5271 26.5278 15.4053 26.5062 15.2849 26.4819C15.1743 26.4594 15.0647 26.4337 14.9555 26.4085C14.8509 26.3842 14.7464 26.3604 14.6428 26.3338C14.5201 26.3023 14.3978 26.2681 14.2765 26.2335C14.1911 26.2092 14.1057 26.1844 14.0207 26.1583C13.884 26.116 13.7482 26.0715 13.6138 26.0251C13.5499 26.0031 13.4864 25.9806 13.4229 25.9581C13.2708 25.9032 13.1196 25.846 12.9703 25.7857C12.9315 25.7704 12.8937 25.7542 12.855 25.7385C12.6842 25.6678 12.5148 25.5945 12.3477 25.5171C12.3407 25.5139 12.3342 25.5108 12.3272 25.5072C10.699 24.7476 9.26073 23.6694 8.0936 22.3599C8.99567 19.1568 11.5493 16.5747 14.8346 15.5473C14.8995 15.5856 14.9671 15.6198 15.0339 15.6558C15.0731 15.6769 15.1118 15.6994 15.1515 15.7197C15.2905 15.7908 15.4315 15.8574 15.5757 15.9172C15.6863 15.964 15.8006 16.0036 15.9145 16.0441C15.9369 16.0518 15.9593 16.0603 15.9817 16.068C16.6145 16.284 17.2916 16.4077 18 16.4077C18.7084 16.4077 19.3855 16.284 20.0179 16.068C20.0403 16.0603 20.0627 16.0518 20.0851 16.0441C20.1989 16.0036 20.3133 15.964 20.4239 15.9172C20.5681 15.8574 20.709 15.7908 20.8481 15.7197C20.8877 15.699 20.9265 15.6769 20.9657 15.6558C21.0324 15.6198 21.1005 15.5856 21.1659 15.5469C24.4512 16.5747 27.0043 19.1568 27.9069 22.3594C26.7397 23.6685 25.3015 24.7467 23.6733 25.5067ZM12.8667 10.5577C12.8667 7.82846 15.1697 5.60771 18 5.60771C20.8303 5.60771 23.1333 7.82846 23.1333 10.5577C23.1333 12.2938 22.1995 13.8216 20.7925 14.7054C20.6087 14.8206 20.4173 14.9236 20.2209 15.0136C20.1975 15.0244 20.1747 15.0357 20.1513 15.046C18.7999 15.6387 17.2001 15.6387 15.8487 15.046C15.8253 15.0357 15.802 15.0244 15.7791 15.0136C15.5822 14.9236 15.3913 14.8206 15.2075 14.7054C13.8005 13.8216 12.8667 12.2938 12.8667 10.5577ZM28.6069 21.5031C27.5489 18.4908 25.1353 16.0563 22.0516 14.8998C23.285 13.8283 24.0667 12.2812 24.0667 10.5577C24.0667 7.33211 21.3451 4.70771 18 4.70771C14.6549 4.70771 11.9333 7.33211 11.9333 10.5577C11.9333 12.2812 12.715 13.8283 13.9489 14.8998C10.8651 16.0567 8.45153 18.4908 7.3936 21.5031C5.84753 19.4335 4.93333 16.8973 4.93333 14.1577C4.93333 7.21016 10.7951 1.55771 18 1.55771C25.2049 1.55771 31.0667 7.21016 31.0667 14.1577C31.0667 16.8973 30.1525 19.4335 28.6069 21.5031Z" fill="white"/>
</g>
<g clip-path="url(#clip1)">
<path d="M73 0.657715C65.2804 0.657715 59 6.71381 59 14.1577C59 17.418 60.2049 20.4118 62.2079 22.7473C62.213 22.7541 62.2135 22.7626 62.2191 22.7689C63.6653 24.4506 65.4815 25.7398 67.5055 26.5728C67.5288 26.5822 67.5517 26.5926 67.575 26.602C67.7388 26.6686 67.9045 26.7303 68.0706 26.7906C68.1359 26.8144 68.2013 26.8387 68.2675 26.8617C68.4108 26.9112 68.555 26.958 68.7001 27.003C68.793 27.0318 68.8859 27.0601 68.9797 27.0871C69.108 27.124 69.2368 27.1596 69.3665 27.1933C69.4804 27.223 69.5952 27.2505 69.71 27.277C69.8262 27.304 69.9429 27.331 70.06 27.3549C70.1907 27.3819 70.3227 27.4057 70.4553 27.4291C70.5617 27.448 70.6676 27.4678 70.7749 27.4845C70.9219 27.5074 71.0699 27.5254 71.2183 27.5439C71.3139 27.5556 71.4091 27.5691 71.5053 27.579C71.6733 27.5961 71.8427 27.6082 72.0125 27.6195C72.0914 27.6249 72.1698 27.633 72.2491 27.637C72.4969 27.6505 72.7475 27.6577 73 27.6577C73.2525 27.6577 73.5031 27.6505 73.7518 27.6379C73.8311 27.6339 73.9095 27.6258 73.9884 27.6204C74.1583 27.6087 74.3277 27.597 74.4957 27.5799C74.5918 27.57 74.687 27.5565 74.7827 27.5448C74.9311 27.5263 75.079 27.5083 75.226 27.4854C75.3329 27.4687 75.4393 27.4489 75.5457 27.43C75.6777 27.4066 75.8098 27.3828 75.9409 27.3558C76.0581 27.3315 76.1743 27.3049 76.2909 27.2779C76.4057 27.2509 76.5205 27.2235 76.6344 27.1942C76.7641 27.1609 76.8929 27.1249 77.0213 27.088C77.1151 27.061 77.2079 27.0327 77.3008 27.0039C77.4459 26.9589 77.5901 26.9121 77.7334 26.8626C77.7992 26.8396 77.8645 26.8153 77.9303 26.7915C78.0969 26.7312 78.2621 26.6691 78.4259 26.6029C78.4493 26.5935 78.4721 26.5831 78.4955 26.5737C80.5189 25.7407 82.3357 24.4515 83.7819 22.7698C83.7875 22.7635 83.7879 22.7545 83.7931 22.7482C85.7951 20.4118 87 17.418 87 14.1577C87 6.71381 80.7196 0.657715 73 0.657715ZM78.6733 25.5067C78.6663 25.5099 78.6597 25.5135 78.6527 25.5166C78.4861 25.594 78.3167 25.6669 78.1459 25.738C78.1072 25.7538 78.0689 25.77 78.0302 25.7857C77.8809 25.846 77.7297 25.9032 77.5775 25.9581C77.5141 25.981 77.4506 26.0035 77.3867 26.0251C77.2518 26.0715 77.1165 26.116 76.9797 26.1583C76.8948 26.1844 76.8094 26.2092 76.724 26.2335C76.6027 26.2686 76.4809 26.3023 76.3577 26.3338C76.2541 26.3604 76.1495 26.3847 76.045 26.4085C75.9353 26.4337 75.8261 26.4594 75.7155 26.4819C75.5947 26.5066 75.4729 26.5278 75.3515 26.5489C75.2531 26.5665 75.1551 26.5849 75.0557 26.6002C74.9189 26.6209 74.7808 26.6376 74.6431 26.6542C74.5559 26.665 74.4691 26.6776 74.3809 26.6866C74.2236 26.7028 74.0649 26.7132 73.9067 26.724C73.8363 26.7285 73.7663 26.7361 73.6949 26.7397C73.4639 26.7514 73.2324 26.7577 73 26.7577C72.7676 26.7577 72.5361 26.7514 72.3056 26.7397C72.2347 26.7361 72.1647 26.7289 72.0937 26.724C71.9351 26.7136 71.7769 26.7028 71.6196 26.6866C71.5314 26.6776 71.4446 26.665 71.3573 26.6542C71.2197 26.6376 71.0815 26.6209 70.9448 26.6002C70.8454 26.5849 70.7474 26.5665 70.6489 26.5489C70.5271 26.5278 70.4053 26.5062 70.2849 26.4819C70.1743 26.4594 70.0647 26.4337 69.9555 26.4085C69.8509 26.3842 69.7464 26.3604 69.6428 26.3338C69.5201 26.3023 69.3978 26.2681 69.2765 26.2335C69.1911 26.2092 69.1057 26.1844 69.0207 26.1583C68.884 26.116 68.7482 26.0715 68.6138 26.0251C68.5499 26.0031 68.4864 25.9806 68.4229 25.9581C68.2708 25.9032 68.1196 25.846 67.9703 25.7857C67.9315 25.7704 67.8937 25.7542 67.855 25.7385C67.6842 25.6678 67.5148 25.5945 67.3477 25.5171C67.3407 25.5139 67.3342 25.5108 67.3272 25.5072C65.699 24.7476 64.2607 23.6694 63.0936 22.3599C63.9957 19.1568 66.5493 16.5747 69.8346 15.5473C69.8995 15.5856 69.9671 15.6198 70.0339 15.6558C70.0731 15.6769 70.1118 15.6994 70.1515 15.7197C70.2905 15.7908 70.4315 15.8574 70.5757 15.9172C70.6863 15.964 70.8006 16.0036 70.9145 16.0441C70.9369 16.0518 70.9593 16.0603 70.9817 16.068C71.6145 16.284 72.2916 16.4077 73 16.4077C73.7084 16.4077 74.3855 16.284 75.0179 16.068C75.0403 16.0603 75.0627 16.0518 75.0851 16.0441C75.1989 16.0036 75.3133 15.964 75.4239 15.9172C75.5681 15.8574 75.709 15.7908 75.8481 15.7197C75.8877 15.699 75.9265 15.6769 75.9657 15.6558C76.0324 15.6198 76.1005 15.5856 76.1659 15.5469C79.4512 16.5747 82.0043 19.1568 82.9069 22.3594C81.7397 23.6685 80.3015 24.7467 78.6733 25.5067ZM67.8667 10.5577C67.8667 7.82846 70.1697 5.60771 73 5.60771C75.8303 5.60771 78.1333 7.82846 78.1333 10.5577C78.1333 12.2938 77.1995 13.8216 75.7925 14.7054C75.6087 14.8206 75.4173 14.9236 75.2209 15.0136C75.1975 15.0244 75.1747 15.0357 75.1513 15.046C73.7999 15.6387 72.2001 15.6387 70.8487 15.046C70.8253 15.0357 70.802 15.0244 70.7791 15.0136C70.5822 14.9236 70.3913 14.8206 70.2075 14.7054C68.8005 13.8216 67.8667 12.2938 67.8667 10.5577ZM83.6069 21.5031C82.5489 18.4908 80.1353 16.0563 77.0516 14.8998C78.285 13.8283 79.0667 12.2812 79.0667 10.5577C79.0667 7.33211 76.3451 4.70771 73 4.70771C69.6549 4.70771 66.9333 7.33211 66.9333 10.5577C66.9333 12.2812 67.715 13.8283 68.9489 14.8998C65.8651 16.0567 63.4515 18.4908 62.3936 21.5031C60.8475 19.4335 59.9333 16.8973 59.9333 14.1577C59.9333 7.21016 65.7951 1.55771 73 1.55771C80.2049 1.55771 86.0667 7.21016 86.0667 14.1577C86.0667 16.8973 85.1525 19.4335 83.6069 21.5031Z" fill="white"/>
</g>
<g clip-path="url(#clip2)">
<path d="M45.5 48.6577C38.0561 48.6577 32 54.9381 32 62.6577C32 66.0387 33.1619 69.1434 35.0933 71.5654C35.0982 71.5724 35.0987 71.5813 35.1041 71.5878C36.4986 73.3318 38.25 74.6688 40.2017 75.5326C40.2242 75.5424 40.2463 75.5531 40.2688 75.5629C40.4267 75.632 40.5864 75.6959 40.7466 75.7584C40.8096 75.7832 40.8726 75.8084 40.9365 75.8322C41.0747 75.8835 41.2137 75.932 41.3537 75.9787C41.4432 76.0086 41.5328 76.038 41.6233 76.066C41.747 76.1042 41.8712 76.1411 41.9963 76.1761C42.1061 76.2069 42.2168 76.2354 42.3275 76.2629C42.4396 76.2909 42.552 76.3189 42.665 76.3436C42.791 76.3716 42.9184 76.3964 43.0462 76.4206C43.1488 76.4402 43.2509 76.4608 43.3544 76.478C43.4962 76.5018 43.6388 76.5205 43.7819 76.5396C43.8741 76.5518 43.966 76.5658 44.0587 76.576C44.2206 76.5938 44.384 76.6064 44.5478 76.618C44.6238 76.6236 44.6994 76.632 44.776 76.6362C45.0149 76.6502 45.2565 76.6577 45.5 76.6577C45.7434 76.6577 45.9851 76.6502 46.2249 76.6372C46.3014 76.633 46.377 76.6246 46.4531 76.619C46.6169 76.6068 46.7803 76.5947 46.9423 76.577C47.035 76.5667 47.1267 76.5527 47.219 76.5406C47.3621 76.5214 47.5048 76.5028 47.6465 76.479C47.7495 76.4617 47.8521 76.4412 47.9548 76.4216C48.0821 76.3973 48.2094 76.3726 48.3359 76.3446C48.4488 76.3194 48.5609 76.2918 48.6734 76.2638C48.7841 76.2358 48.8948 76.2074 49.0046 76.177C49.1297 76.1425 49.2539 76.1052 49.3776 76.0669C49.4681 76.0389 49.5576 76.0095 49.6472 75.9796C49.7871 75.933 49.9262 75.8844 50.0644 75.8331C50.1278 75.8093 50.1908 75.7841 50.2542 75.7594C50.4149 75.6968 50.5742 75.6324 50.7321 75.5638C50.7546 75.554 50.7767 75.5433 50.7992 75.5335C52.7504 74.6697 54.5022 73.3327 55.8968 71.5888C55.9022 71.5822 55.9026 71.5729 55.9076 71.5664C57.8381 69.1434 59 66.0387 59 62.6577C59 54.9381 52.9439 48.6577 45.5 48.6577ZM50.9706 74.427C50.9639 74.4303 50.9576 74.434 50.9508 74.4373C50.7902 74.5176 50.6269 74.5932 50.4622 74.6669C50.4248 74.6832 50.3879 74.7 50.3505 74.7164C50.2065 74.7789 50.0607 74.8382 49.914 74.8951C49.8528 74.9189 49.7917 74.9422 49.73 74.9646C49.6 75.0127 49.4694 75.0589 49.3376 75.1028C49.2557 75.1298 49.1733 75.1555 49.091 75.1807C48.974 75.2171 48.8566 75.2521 48.7377 75.2848C48.6378 75.3123 48.5371 75.3375 48.4363 75.3622C48.3305 75.3884 48.2252 75.415 48.1185 75.4383C48.002 75.464 47.8846 75.4859 47.7676 75.5078C47.6726 75.526 47.5781 75.5452 47.4822 75.561C47.3504 75.5825 47.2172 75.5998 47.0844 75.617C47.0003 75.6282 46.9166 75.6413 46.8315 75.6506C46.6799 75.6674 46.5269 75.6782 46.3743 75.6894C46.3064 75.694 46.2389 75.702 46.17 75.7057C45.9473 75.7178 45.7241 75.7244 45.5 75.7244C45.2759 75.7244 45.0527 75.7178 44.8304 75.7057C44.762 75.702 44.6945 75.6945 44.6261 75.6894C44.4731 75.6786 44.3205 75.6674 44.1689 75.6506C44.0838 75.6413 44.0001 75.6282 43.916 75.617C43.7832 75.5998 43.6501 75.5825 43.5182 75.561C43.4223 75.5452 43.3278 75.526 43.2329 75.5078C43.1154 75.4859 42.998 75.4635 42.8819 75.4383C42.7752 75.415 42.6695 75.3884 42.5642 75.3622C42.4634 75.337 42.3626 75.3123 42.2627 75.2848C42.1444 75.2521 42.0265 75.2166 41.9094 75.1807C41.8271 75.1555 41.7448 75.1298 41.6628 75.1028C41.531 75.0589 41.4 75.0127 41.2704 74.9646C41.2088 74.9418 41.1476 74.9184 41.0864 74.8951C40.9397 74.8382 40.7939 74.7789 40.6499 74.7164C40.6125 74.7005 40.5761 74.6837 40.5387 74.6674C40.3741 74.5941 40.2107 74.518 40.0496 74.4378C40.0428 74.4345 40.0365 74.4312 40.0298 74.4275C38.4597 73.6398 37.0728 72.5216 35.9474 71.1636C36.8172 67.8419 39.2796 65.1642 42.4476 64.0988C42.5102 64.1384 42.5754 64.1739 42.6398 64.2112C42.6776 64.2332 42.7149 64.2565 42.7532 64.2775C42.8873 64.3512 43.0232 64.4203 43.1622 64.4824C43.2689 64.5309 43.3791 64.572 43.4889 64.614C43.5105 64.6219 43.5321 64.6308 43.5537 64.6387C44.1639 64.8627 44.8169 64.991 45.5 64.991C46.1831 64.991 46.8361 64.8627 47.4458 64.6387C47.4674 64.6308 47.489 64.6219 47.5106 64.614C47.6204 64.572 47.7306 64.5309 47.8373 64.4824C47.9763 64.4203 48.1122 64.3512 48.2463 64.2775C48.2846 64.256 48.3219 64.2332 48.3597 64.2112C48.4241 64.1739 48.4898 64.1384 48.5528 64.0983C51.7208 65.1642 54.1827 67.8419 55.053 71.1632C53.9276 72.5207 52.5407 73.6388 50.9706 74.427ZM40.55 58.9244C40.55 56.094 42.7708 53.791 45.5 53.791C48.2292 53.791 50.45 56.094 50.45 58.9244C50.45 60.7248 49.5496 62.3091 48.1928 63.2256C48.0155 63.3451 47.831 63.452 47.6415 63.5453C47.619 63.5565 47.597 63.5682 47.5745 63.5789C46.2713 64.1935 44.7287 64.1935 43.4255 63.5789C43.403 63.5682 43.3805 63.5565 43.3584 63.5453C43.1685 63.452 42.9845 63.3451 42.8072 63.2256C41.4504 62.3091 40.55 60.7248 40.55 58.9244ZM55.7281 70.2751C54.7079 67.1512 52.3805 64.6266 49.4069 63.4272C50.5962 62.3161 51.35 60.7117 51.35 58.9244C51.35 55.5793 48.7256 52.8577 45.5 52.8577C42.2744 52.8577 39.65 55.5793 39.65 58.9244C39.65 60.7117 40.4037 62.3161 41.5935 63.4272C38.6199 64.627 36.2925 67.1512 35.2724 70.2751C33.7815 68.1289 32.9 65.4988 32.9 62.6577C32.9 55.4528 38.5524 49.591 45.5 49.591C52.4475 49.591 58.1 55.4528 58.1 62.6577C58.1 65.4988 57.2184 68.1289 55.7281 70.2751Z" fill="white"/>
</g>
<path d="M17 30.6577V34.6577H74V30.6577" stroke="white"/>
<path d="M45 35.6577V43.6577" stroke="white"/>
</g>
<defs>
<filter id="filter0_d" x="0" y="0.657715" width="91" height="84" filterUnits="userSpaceOnUse" color-interpolation-filters="sRGB">
<feFlood flood-opacity="0" result="BackgroundImageFix"/>
<feColorMatrix in="SourceAlpha" type="matrix" values="0 0 0 0 0 0 0 0 0 0 0 0 0 0 0 0 0 0 127 0"/>
<feOffset dy="4"/>
<feGaussianBlur stdDeviation="2"/>
<feColorMatrix type="matrix" values="0 0 0 0 0 0 0 0 0 0 0 0 0 0 0 0 0 0 0.25 0"/>
<feBlend mode="normal" in2="BackgroundImageFix" result="effect1_dropShadow"/>
<feBlend mode="normal" in="SourceGraphic" in2="effect1_dropShadow" result="shape"/>
</filter>
<clipPath id="clip0">
<rect width="28" height="27" fill="white" transform="translate(4 0.657715)"/>
</clipPath>
<clipPath id="clip1">
<rect width="28" height="27" fill="white" transform="translate(59 0.657715)"/>
</clipPath>
<clipPath id="clip2">
<rect width="27" height="28" fill="white" transform="translate(32 48.6577)"/>
</clipPath>
</defs>
</svg>
