<svg width="57" height="58" viewBox="0 0 57 58" fill="none" xmlns="http://www.w3.org/2000/svg">
<g opacity="0.3" clip-path="url(#clip0)">
<path d="M2.02706 57.3098L19.3705 39.9665C23.3702 43.5688 28.6437 45.7828 34.4376 45.7828C46.8784 45.7827 57 35.6612 57 23.2203C57 10.7793 46.8784 0.657714 34.4375 0.657714C21.9965 0.657713 11.8749 10.7793 11.8749 23.2203C11.8749 29.0141 14.0889 34.2875 17.6913 38.2873L0.347902 55.6307C0.116006 55.8626 1.38833e-06 56.1665 1.37505e-06 56.4703C1.36177e-06 56.7741 0.116006 57.0779 0.347902 57.3099C0.811807 57.7737 1.56327 57.7737 2.02706 57.3098ZM14.25 23.2203C14.25 12.0898 23.3059 3.03279 34.4375 3.03279C45.5691 3.03279 54.625 12.0898 54.625 23.2203C54.625 34.3507 45.5692 43.4077 34.4375 43.4077C23.3058 43.4077 14.25 34.3507 14.25 23.2203Z" fill="white"/>
</g>
<defs>
<clipPath id="clip0">
<rect width="57" height="57" fill="white" transform="translate(57 0.657715) rotate(90)"/>
</clipPath>
</defs>
</svg>
