<svg width="66" height="79" viewBox="0 0 66 79" fill="none" xmlns="http://www.w3.org/2000/svg">
<path d="M43.5751 1.01692C41.432 4.21691 38.1668 12.6913 42.2511 20.989C47.3564 31.361 48.0874 39.2671 42.944 46.9471C37.8005 54.6271 28.5088 53.9665 16.2197 56.3974C6.38837 58.3421 2.07123 62.5273 1.14158 64.3769" stroke="white" stroke-width="2"/>
<path d="M64.3751 14.9472C62.232 18.1472 55.6389 24.3928 46.4112 23.7751C34.8765 23.003 27.2875 25.337 22.1441 33.017C17.0006 40.697 21.1489 49.0375 23.5798 61.3266C25.5244 71.1579 23.298 76.7434 21.9416 78.3071" stroke="white" stroke-width="2"/>
<path d="M40.7832 7.9541L59.3432 20.3841" stroke="white" stroke-width="2"/>
<path d="M22.3584 32.697L43.1584 46.6272M28.9932 26.9428L45.9532 38.3013M19.3493 41.3428L35.3493 52.0584M7.13356 59.5828L24.0936 70.9413" stroke="#FFFEFE" stroke-width="2"/>
</svg>
