<svg width="28" height="28" viewBox="0 0 28 28" fill="none" xmlns="http://www.w3.org/2000/svg">
<g clip-path="url(#clip0)">
<path d="M14 0.657715C6.2804 0.657715 0 6.71381 0 14.1577C0 17.418 1.20493 20.4118 3.20787 22.7473C3.213 22.7541 3.21347 22.7626 3.21907 22.7689C4.66527 24.4506 6.48153 25.7398 8.50547 26.5728C8.5288 26.5822 8.55167 26.5926 8.575 26.602C8.7388 26.6686 8.90447 26.7303 9.0706 26.7906C9.13593 26.8144 9.20127 26.8387 9.26753 26.8617C9.4108 26.9112 9.555 26.958 9.70013 27.003C9.793 27.0318 9.88587 27.0601 9.97967 27.0871C10.108 27.124 10.2368 27.1596 10.3665 27.1933C10.4804 27.223 10.5952 27.2505 10.71 27.277C10.8262 27.304 10.9429 27.331 11.06 27.3549C11.1907 27.3819 11.3227 27.4057 11.4553 27.4291C11.5617 27.448 11.6676 27.4678 11.7749 27.4845C11.9219 27.5074 12.0699 27.5254 12.2183 27.5439C12.3139 27.5556 12.4091 27.5691 12.5053 27.579C12.6733 27.5961 12.8427 27.6082 13.0125 27.6195C13.0914 27.6249 13.1698 27.633 13.2491 27.637C13.4969 27.6505 13.7475 27.6577 14 27.6577C14.2525 27.6577 14.5031 27.6505 14.7518 27.6379C14.8311 27.6339 14.9095 27.6258 14.9884 27.6204C15.1583 27.6087 15.3277 27.597 15.4957 27.5799C15.5918 27.57 15.687 27.5565 15.7827 27.5448C15.9311 27.5263 16.079 27.5083 16.226 27.4854C16.3329 27.4687 16.4393 27.4489 16.5457 27.43C16.6777 27.4066 16.8098 27.3828 16.9409 27.3558C17.0581 27.3315 17.1743 27.3049 17.2909 27.2779C17.4057 27.2509 17.5205 27.2235 17.6344 27.1942C17.7641 27.1609 17.8929 27.1249 18.0213 27.088C18.1151 27.061 18.2079 27.0327 18.3008 27.0039C18.4459 26.9589 18.5901 26.9121 18.7334 26.8626C18.7992 26.8396 18.8645 26.8153 18.9303 26.7915C19.0969 26.7312 19.2621 26.6691 19.4259 26.6029C19.4493 26.5935 19.4721 26.5831 19.4955 26.5737C21.5189 25.7407 23.3357 24.4515 24.7819 22.7698C24.7875 22.7635 24.7879 22.7545 24.7931 22.7482C26.7951 20.4118 28 17.418 28 14.1577C28 6.71381 21.7196 0.657715 14 0.657715ZM19.6733 25.5067C19.6663 25.5099 19.6597 25.5135 19.6527 25.5166C19.4861 25.594 19.3167 25.6669 19.1459 25.738C19.1072 25.7538 19.0689 25.77 19.0302 25.7857C18.8809 25.846 18.7297 25.9032 18.5775 25.9581C18.5141 25.981 18.4506 26.0035 18.3867 26.0251C18.2518 26.0715 18.1165 26.116 17.9797 26.1583C17.8948 26.1844 17.8094 26.2092 17.724 26.2335C17.6027 26.2686 17.4809 26.3023 17.3577 26.3338C17.2541 26.3604 17.1495 26.3847 17.045 26.4085C16.9353 26.4337 16.8261 26.4594 16.7155 26.4819C16.5947 26.5066 16.4729 26.5278 16.3515 26.5489C16.2531 26.5665 16.1551 26.5849 16.0557 26.6002C15.9189 26.6209 15.7808 26.6376 15.6431 26.6542C15.5559 26.665 15.4691 26.6776 15.3809 26.6866C15.2236 26.7028 15.0649 26.7132 14.9067 26.724C14.8363 26.7285 14.7663 26.7361 14.6949 26.7397C14.4639 26.7514 14.2324 26.7577 14 26.7577C13.7676 26.7577 13.5361 26.7514 13.3056 26.7397C13.2347 26.7361 13.1647 26.7289 13.0937 26.724C12.9351 26.7136 12.7769 26.7028 12.6196 26.6866C12.5314 26.6776 12.4446 26.665 12.3573 26.6542C12.2197 26.6376 12.0815 26.6209 11.9448 26.6002C11.8454 26.5849 11.7474 26.5665 11.6489 26.5489C11.5271 26.5278 11.4053 26.5062 11.2849 26.4819C11.1743 26.4594 11.0647 26.4337 10.9555 26.4085C10.8509 26.3842 10.7464 26.3604 10.6428 26.3338C10.5201 26.3023 10.3978 26.2681 10.2765 26.2335C10.1911 26.2092 10.1057 26.1844 10.0207 26.1583C9.884 26.116 9.7482 26.0715 9.6138 26.0251C9.54987 26.0031 9.4864 25.9806 9.42293 25.9581C9.2708 25.9032 9.1196 25.846 8.97027 25.7857C8.93153 25.7704 8.89373 25.7542 8.855 25.7385C8.6842 25.6678 8.5148 25.5945 8.34773 25.5171C8.34073 25.5139 8.3342 25.5108 8.3272 25.5072C6.699 24.7476 5.26073 23.6694 4.0936 22.3599C4.99567 19.1568 7.54927 16.5747 10.8346 15.5473C10.8995 15.5856 10.9671 15.6198 11.0339 15.6558C11.0731 15.6769 11.1118 15.6994 11.1515 15.7197C11.2905 15.7908 11.4315 15.8574 11.5757 15.9172C11.6863 15.964 11.8006 16.0036 11.9145 16.0441C11.9369 16.0518 11.9593 16.0603 11.9817 16.068C12.6145 16.284 13.2916 16.4077 14 16.4077C14.7084 16.4077 15.3855 16.284 16.0179 16.068C16.0403 16.0603 16.0627 16.0518 16.0851 16.0441C16.1989 16.0036 16.3133 15.964 16.4239 15.9172C16.5681 15.8574 16.709 15.7908 16.8481 15.7197C16.8877 15.699 16.9265 15.6769 16.9657 15.6558C17.0324 15.6198 17.1005 15.5856 17.1659 15.5469C20.4512 16.5747 23.0043 19.1568 23.9069 22.3594C22.7397 23.6685 21.3015 24.7467 19.6733 25.5067ZM8.86667 10.5577C8.86667 7.82846 11.1697 5.60771 14 5.60771C16.8303 5.60771 19.1333 7.82846 19.1333 10.5577C19.1333 12.2938 18.1995 13.8216 16.7925 14.7054C16.6087 14.8206 16.4173 14.9236 16.2209 15.0136C16.1975 15.0244 16.1747 15.0357 16.1513 15.046C14.7999 15.6387 13.2001 15.6387 11.8487 15.046C11.8253 15.0357 11.802 15.0244 11.7791 15.0136C11.5822 14.9236 11.3913 14.8206 11.2075 14.7054C9.80047 13.8216 8.86667 12.2938 8.86667 10.5577ZM24.6069 21.5031C23.5489 18.4908 21.1353 16.0563 18.0516 14.8998C19.285 13.8283 20.0667 12.2812 20.0667 10.5577C20.0667 7.33211 17.3451 4.70771 14 4.70771C10.6549 4.70771 7.93333 7.33211 7.93333 10.5577C7.93333 12.2812 8.715 13.8283 9.94887 14.8998C6.86513 16.0567 4.45153 18.4908 3.3936 21.5031C1.84753 19.4335 0.933333 16.8973 0.933333 14.1577C0.933333 7.21016 6.79513 1.55771 14 1.55771C21.2049 1.55771 27.0667 7.21016 27.0667 14.1577C27.0667 16.8973 26.1525 19.4335 24.6069 21.5031Z" fill="white"/>
</g>
<defs>
<clipPath id="clip0">
<rect width="28" height="27" fill="white" transform="translate(0 0.657715)"/>
</clipPath>
</defs>
</svg>
