<svg width="27" height="29" viewBox="0 0 27 29" fill="none" xmlns="http://www.w3.org/2000/svg">
<g clip-path="url(#clip0)">
<path d="M13.5 0.657715C6.0561 0.657715 0 6.93812 0 14.6577C0 18.0387 1.1619 21.1434 3.0933 23.5654C3.09825 23.5724 3.0987 23.5813 3.1041 23.5878C4.49865 25.3318 6.25005 26.6688 8.2017 27.5326C8.2242 27.5424 8.24625 27.5531 8.26875 27.5629C8.4267 27.632 8.58645 27.6959 8.74665 27.7584C8.80965 27.7832 8.87265 27.8084 8.93655 27.8322C9.0747 27.8835 9.21375 27.932 9.3537 27.9787C9.44325 28.0086 9.5328 28.038 9.62325 28.066C9.747 28.1042 9.8712 28.1411 9.9963 28.1761C10.1061 28.2069 10.2168 28.2354 10.3275 28.2629C10.4396 28.2909 10.552 28.3189 10.665 28.3436C10.791 28.3716 10.9184 28.3964 11.0462 28.4206C11.1488 28.4402 11.2509 28.4608 11.3544 28.478C11.4962 28.5018 11.6388 28.5205 11.7819 28.5396C11.8741 28.5518 11.966 28.5658 12.0587 28.576C12.2206 28.5938 12.384 28.6064 12.5478 28.618C12.6238 28.6236 12.6994 28.632 12.776 28.6362C13.0149 28.6502 13.2565 28.6577 13.5 28.6577C13.7434 28.6577 13.9851 28.6502 14.2249 28.6372C14.3014 28.633 14.377 28.6246 14.4531 28.619C14.6169 28.6068 14.7803 28.5947 14.9423 28.577C15.035 28.5667 15.1267 28.5527 15.219 28.5406C15.3621 28.5214 15.5048 28.5028 15.6465 28.479C15.7495 28.4617 15.8521 28.4412 15.9548 28.4216C16.0821 28.3973 16.2094 28.3726 16.3359 28.3446C16.4488 28.3194 16.5609 28.2918 16.6734 28.2638C16.7841 28.2358 16.8948 28.2074 17.0046 28.177C17.1297 28.1425 17.2539 28.1052 17.3776 28.0669C17.4681 28.0389 17.5576 28.0095 17.6472 27.9796C17.7871 27.933 17.9262 27.8844 18.0644 27.8331C18.1278 27.8093 18.1908 27.7841 18.2542 27.7594C18.4149 27.6968 18.5742 27.6324 18.7321 27.5638C18.7546 27.554 18.7767 27.5433 18.7992 27.5335C20.7504 26.6697 22.5022 25.3327 23.8968 23.5888C23.9022 23.5822 23.9026 23.5729 23.9076 23.5664C25.8381 21.1434 27 18.0387 27 14.6577C27 6.93812 20.9439 0.657715 13.5 0.657715ZM18.9706 26.427C18.9639 26.4303 18.9576 26.434 18.9508 26.4373C18.7902 26.5176 18.6269 26.5932 18.4622 26.6669C18.4248 26.6832 18.3879 26.7 18.3505 26.7164C18.2065 26.7789 18.0607 26.8382 17.914 26.8951C17.8528 26.9189 17.7917 26.9422 17.73 26.9646C17.6 27.0127 17.4694 27.0589 17.3376 27.1028C17.2557 27.1298 17.1733 27.1555 17.091 27.1807C16.974 27.2171 16.8566 27.2521 16.7377 27.2848C16.6378 27.3123 16.5371 27.3375 16.4363 27.3622C16.3305 27.3884 16.2252 27.415 16.1185 27.4383C16.002 27.464 15.8846 27.4859 15.7676 27.5078C15.6726 27.526 15.5781 27.5452 15.4822 27.561C15.3504 27.5825 15.2172 27.5998 15.0844 27.617C15.0003 27.6282 14.9166 27.6413 14.8315 27.6506C14.6799 27.6674 14.5269 27.6782 14.3743 27.6894C14.3064 27.694 14.2389 27.702 14.17 27.7057C13.9473 27.7178 13.7241 27.7244 13.5 27.7244C13.2759 27.7244 13.0527 27.7178 12.8304 27.7057C12.762 27.702 12.6945 27.6945 12.6261 27.6894C12.4731 27.6786 12.3205 27.6674 12.1689 27.6506C12.0838 27.6413 12.0001 27.6282 11.916 27.617C11.7832 27.5998 11.6501 27.5825 11.5182 27.561C11.4223 27.5452 11.3278 27.526 11.2329 27.5078C11.1154 27.4859 10.998 27.4635 10.8819 27.4383C10.7752 27.415 10.6695 27.3884 10.5642 27.3622C10.4634 27.337 10.3626 27.3123 10.2627 27.2848C10.1444 27.2521 10.0265 27.2166 9.90945 27.1807C9.8271 27.1555 9.74475 27.1298 9.66285 27.1028C9.531 27.0589 9.40005 27.0127 9.27045 26.9646C9.2088 26.9418 9.1476 26.9184 9.0864 26.8951C8.9397 26.8382 8.7939 26.7789 8.6499 26.7164C8.61255 26.7005 8.5761 26.6837 8.53875 26.6674C8.37405 26.5941 8.2107 26.518 8.0496 26.4378C8.04285 26.4345 8.03655 26.4312 8.0298 26.4275C6.45975 25.6398 5.07285 24.5216 3.9474 23.1636C4.81725 19.8419 7.27965 17.1642 10.4476 16.0988C10.5102 16.1384 10.5754 16.1739 10.6398 16.2112C10.6776 16.2332 10.7149 16.2565 10.7532 16.2775C10.8873 16.3512 11.0232 16.4203 11.1622 16.4824C11.2689 16.5309 11.3791 16.572 11.4889 16.614C11.5105 16.6219 11.5321 16.6308 11.5537 16.6387C12.1639 16.8627 12.8169 16.991 13.5 16.991C14.1831 16.991 14.8361 16.8627 15.4458 16.6387C15.4674 16.6308 15.489 16.6219 15.5106 16.614C15.6204 16.572 15.7306 16.5309 15.8373 16.4824C15.9763 16.4203 16.1122 16.3512 16.2463 16.2775C16.2846 16.256 16.3219 16.2332 16.3597 16.2112C16.4241 16.1739 16.4898 16.1384 16.5528 16.0983C19.7208 17.1642 22.1827 19.8419 23.053 23.1632C21.9276 24.5207 20.5407 25.6388 18.9706 26.427ZM8.55 10.9244C8.55 8.09405 10.7708 5.79105 13.5 5.79105C16.2292 5.79105 18.45 8.09405 18.45 10.9244C18.45 12.7248 17.5496 14.3091 16.1928 15.2256C16.0155 15.3451 15.831 15.452 15.6415 15.5453C15.619 15.5565 15.597 15.5682 15.5745 15.5789C14.2713 16.1935 12.7287 16.1935 11.4255 15.5789C11.403 15.5682 11.3805 15.5565 11.3584 15.5453C11.1685 15.452 10.9845 15.3451 10.8072 15.2256C9.45045 14.3091 8.55 12.7248 8.55 10.9244ZM23.7281 22.2751C22.7079 19.1512 20.3805 16.6266 17.4069 15.4272C18.5962 14.3161 19.35 12.7117 19.35 10.9244C19.35 7.57931 16.7256 4.85771 13.5 4.85771C10.2744 4.85771 7.65 7.57931 7.65 10.9244C7.65 12.7117 8.40375 14.3161 9.59355 15.4272C6.61995 16.627 4.29255 19.1512 3.2724 22.2751C1.78155 20.1289 0.9 17.4988 0.9 14.6577C0.9 7.45285 6.55245 1.59105 13.5 1.59105C20.4475 1.59105 26.1 7.45285 26.1 14.6577C26.1 17.4988 25.2184 20.1289 23.7281 22.2751Z" fill="white"/>
</g>
<defs>
<clipPath id="clip0">
<rect width="27" height="28" fill="white" transform="translate(0 0.657715)"/>
</clipPath>
</defs>
</svg>
