<svg width="34" height="38" viewBox="0 0 34 38" fill="none" xmlns="http://www.w3.org/2000/svg">
<path d="M22.0323 25.0103C22.1062 24.8899 22.1801 24.7718 22.2541 24.6492C25.5796 19.1435 27.2531 14.3272 27.2291 10.3359C27.2143 7.58984 26.1132 4.96128 24.1664 3.02457C22.2196 1.08786 19.5853 0.000465393 16.8392 1.49353e-07C14.0932 -0.000465095 11.4585 1.08603 9.51105 3.02208C7.56357 4.95813 6.46158 7.58632 6.44588 10.3324C6.42155 14.3272 8.09536 19.1441 11.4209 24.6492C11.4948 24.7718 11.5688 24.8899 11.6427 25.0103C4.64147 25.8755 0 28.3778 0 31.3486C0 35.0784 7.39434 38 16.8373 38C26.2803 38 33.6747 35.0784 33.6747 31.3486C33.6747 28.3778 29.0332 25.8755 22.0323 25.0103V25.0103ZM7.56623 10.3359C7.55929 9.11378 7.79403 7.90236 8.25695 6.77131C8.71987 5.64026 9.40184 4.61188 10.2636 3.74534C11.1254 2.8788 12.15 2.19119 13.2785 1.72207C14.407 1.25294 15.6171 1.01155 16.8393 1.01178C18.0614 1.01201 19.2714 1.25386 20.3997 1.72342C21.528 2.19297 22.5524 2.88097 23.4138 3.74784C24.2753 4.61471 24.9569 5.64334 25.4194 6.77457C25.8819 7.9058 26.1161 9.1173 26.1087 10.3394C26.1568 18.2965 18.7176 28.1105 16.8373 30.4639C14.9571 28.1105 7.51758 18.2962 7.56623 10.3359V10.3359ZM16.8373 36.8796C7.43563 36.8796 1.12035 34.0195 1.12035 31.3486C1.12035 28.9799 5.80312 26.776 12.3028 26.0612C13.5598 28.0239 14.9315 29.9109 16.4106 31.7122C16.4632 31.7742 16.5285 31.8239 16.6022 31.858C16.6759 31.8922 16.7561 31.9098 16.8373 31.9098C16.9185 31.9098 16.9988 31.8922 17.0724 31.858C17.1461 31.8239 17.2115 31.7742 17.264 31.7122C18.7433 29.9109 20.115 28.024 21.3722 26.0612C27.8703 26.776 32.5546 28.9786 32.5546 31.3486C32.5543 34.0195 26.239 36.8796 16.8373 36.8796Z" fill="white"/>
<path d="M12.2573 33.6352C9.77144 33.317 7.77593 32.7568 6.64022 32.0587C6.57754 32.0186 6.50751 31.9914 6.43422 31.9787C6.36093 31.966 6.28583 31.968 6.21333 31.9846C6.14082 32.0012 6.07235 32.0321 6.01191 32.0755C5.95147 32.1189 5.90028 32.1739 5.86131 32.2372C5.82235 32.3006 5.7964 32.3711 5.78497 32.4446C5.77354 32.5181 5.77687 32.5931 5.79476 32.6653C5.81265 32.7375 5.84474 32.8055 5.88915 32.8651C5.93357 32.9248 5.98943 32.975 6.05347 33.0129C7.32203 33.7927 9.47503 34.4085 12.1152 34.7462C12.139 34.7493 12.1629 34.7508 12.1869 34.7507C12.3289 34.75 12.4653 34.6954 12.5686 34.598C12.6719 34.5006 12.7343 34.3675 12.7433 34.2258C12.7522 34.0841 12.707 33.9443 12.6168 33.8347C12.5266 33.725 12.3981 33.6537 12.2573 33.6352V33.6352Z" fill="white"/>
<path d="M17.7781 33.9028C16.9973 33.9208 16.1843 33.9166 15.3908 33.8875C15.3172 33.8848 15.2438 33.8966 15.1748 33.9222C15.1058 33.9479 15.0426 33.9868 14.9886 34.0369C14.9347 34.087 14.8911 34.1473 14.8605 34.2142C14.8298 34.2811 14.8127 34.3534 14.81 34.427C14.8072 34.5006 14.819 34.5739 14.8447 34.6429C14.8703 34.7119 14.9093 34.7752 14.9594 34.8291C15.0095 34.8831 15.0698 34.9266 15.1367 34.9573C15.2036 34.9879 15.2759 35.0051 15.3495 35.0078C15.8418 35.0257 16.3418 35.035 16.8373 35.035C17.1632 35.035 17.4855 35.0312 17.8043 35.0235C17.9528 35.02 18.0939 34.9577 18.1965 34.8503C18.2991 34.7428 18.3548 34.599 18.3514 34.4505C18.3506 34.3766 18.3351 34.3037 18.3057 34.2359C18.2763 34.1681 18.2336 34.1069 18.1802 34.0558C18.1267 34.0048 18.0636 33.965 17.9946 33.9387C17.9255 33.9124 17.8519 33.9002 17.7781 33.9028V33.9028Z" fill="white"/>
<circle cx="15.8952" cy="13.8113" r="4.39517" stroke="white"/>
<path d="M18.1659 9.89518L21.3047 6.75635" stroke="white"/>
<path d="M21.6538 9.1029L21.6538 6.41019L18.8341 6.40957" stroke="white"/>
</svg>
