<?xml version="1.0" encoding="utf-8"?>
<!-- Generator: Adobe Illustrator 24.1.2, SVG Export Plug-In . SVG Version: 6.00 Build 0)  -->
<svg version="1.1" id="Layer_1" xmlns="http://www.w3.org/2000/svg" xmlns:xlink="http://www.w3.org/1999/xlink" x="0px" y="0px"
	 viewBox="0 0 44 102" style="enable-background:new 0 0 44 102;" xml:space="preserve">
<style type="text/css">
	.st0{fill-rule:evenodd;clip-rule:evenodd;fill:#FFFFFF;}
</style>
<path class="st0" d="M4,54L4,54v26c0,9.9,8.1,18,18,18s18-8.1,18-18V54c0-9.9-8.1-18-18-18S4,44.1,4,54L4,54z M0,54
	c0-12.2,9.8-22,22-22s22,9.8,22,22v26c0,12.2-9.8,22-22,22S0,92.2,0,80V54L0,54z"/>
<path class="st0" d="M20,48c0-1.1,0.9-2,2-2s2,0.9,2,2v8c0,1.1-0.9,2-2,2s-2-0.9-2-2V48z"/>
<path class="st0" d="M22,4.8l-8.6,8.6c-0.8,0.8-2,0.8-2.8,0s-0.8-2,0-2.8l10-10C21,0.2,21.5,0,22,0s1,0.2,1.4,0.6l10,10
	c0.8,0.8,0.8,2,0,2.8s-2,0.8-2.8,0L22,4.8z"/>
<path class="st0" d="M22,17.8l-8.6,8.6c-0.8,0.8-2,0.8-2.8,0s-0.8-2,0-2.8l10-10C21,13.2,21.5,13,22,13s1,0.2,1.4,0.6l10,10
	c0.8,0.8,0.8,2,0,2.8s-2,0.8-2.8,0L22,17.8z"/>
</svg>
