<svg xmlns="http://www.w3.org/2000/svg" viewBox="0 0 37.16 39.34"><defs><style>.cls-1{fill:#fff;}</style></defs><g id="Layer_2" data-name="Layer 2"><g id="Layer_8" data-name="Layer 8"><path class="cls-1" d="M15.45,19.45H6.76L5.57,22.26H1l7.72-18h4.85l7.74,18H16.62ZM13.94,15.9,11.13,9.17,8.27,15.9Z" transform="translate(-0.85 -4.24)"/><path class="cls-1" d="M30,22.26H25.23l-8-18h4.8l5.59,12.88L33.21,4.24H38Z" transform="translate(-0.85 -4.24)"/><path class="cls-1" d="M19.45,34.25a9.3,9.3,0,1,1-9.3-9.33A9.33,9.33,0,0,1,19.45,34.25Zm-14.63,0A5.31,5.31,0,1,0,10.15,29,5.31,5.31,0,0,0,4.82,34.25Z" transform="translate(-0.85 -4.24)"/><path class="cls-1" d="M36.28,30.94H32c0-.91-1.06-2.13-2.91-2.13-1.3,0-2.89.59-2.89,1.62,0,.88,1.19,1.22,3.73,1.88,2.84.75,6.84,1.7,6.84,5.68,0,3.44-3,5.59-7.23,5.59-5.65,0-8-3.82-8-6.63h4.32s.35,2.86,3.92,2.86c1.94,0,2.66-.82,2.66-1.59,0-1.14-1.52-1.53-3.19-1.93-2.7-.64-7.44-1.64-7.44-5.65,0-3.28,3.23-5.72,7.34-5.72C33.79,24.92,36.28,28.13,36.28,30.94Z" transform="translate(-0.85 -4.24)"/></g></g></svg>