<svg width="37" height="39" viewBox="0 0 37 39" fill="none" xmlns="http://www.w3.org/2000/svg">
<path d="M14.522 0.32H0.976V18H5.24V12.254H12.988V8.328H5.24V4.272H14.522V0.32ZM36.4248 0.32H31.4588L26.7268 7.548L21.9168 0.32H17.0028L24.5428 11.318V18H28.8328V11.318L36.4248 0.32ZM14.522 21.32H0.976V39H5.24V33.254H12.988V29.328H5.24V25.272H14.522V21.32ZM26.4148 21.32H17.8608V39H22.1248V34.606H25.2448L27.8968 39H33.2008L29.5608 33.67C31.4588 32.656 32.7068 30.498 32.7068 27.95C32.7068 24.102 30.0028 21.32 26.4148 21.32ZM25.8168 25.272C27.2468 25.272 28.4168 26.494 28.4168 27.95C28.4168 29.432 27.2468 30.654 25.7908 30.654H22.1248V25.272H25.8168Z" fill="white"/>
</svg>
