<svg width="21" height="25" viewBox="0 0 21 25" fill="none" xmlns="http://www.w3.org/2000/svg">
<path d="M13.6697 16.1842C13.7148 16.1107 13.76 16.0387 13.8051 15.9639C15.8342 12.6045 16.8553 9.66583 16.8406 7.23047C16.8316 5.55495 16.1598 3.95111 14.9719 2.76941C13.784 1.58772 12.1767 0.924234 10.5012 0.92395C8.82562 0.923666 7.21808 1.5866 6.02981 2.7679C4.84154 3.9492 4.16915 5.55281 4.15957 7.22833C4.14473 9.66583 5.16602 12.6049 7.19512 15.9639C7.24023 16.0387 7.28535 16.1107 7.33047 16.1842C3.05859 16.7121 0.226562 18.2389 0.226562 20.0516C0.226562 22.3274 4.73828 24.11 10.5 24.11C16.2617 24.11 20.7734 22.3274 20.7734 20.0516C20.7734 18.2389 17.9414 16.7121 13.6697 16.1842ZM4.84316 7.23047C4.83893 6.4848 4.98215 5.74564 5.26461 5.05552C5.54707 4.3654 5.96318 3.73793 6.48901 3.2092C7.01484 2.68048 7.64001 2.26093 8.32857 1.97468C9.01713 1.68844 9.75549 1.54115 10.5012 1.5413C11.2469 1.54144 11.9852 1.689 12.6736 1.97551C13.3621 2.26201 13.9871 2.6818 14.5127 3.21073C15.0383 3.73965 15.4542 4.36728 15.7364 5.05751C16.0186 5.74774 16.1615 6.48695 16.157 7.23262C16.1863 12.0877 11.6473 18.0758 10.5 19.5117C9.35273 18.0758 4.81348 12.0875 4.84316 7.23047ZM10.5 23.4264C4.76348 23.4264 0.910156 21.6813 0.910156 20.0516C0.910156 18.6063 3.76738 17.2615 7.7332 16.8254C8.50021 18.023 9.33714 19.1743 10.2396 20.2734C10.2717 20.3112 10.3116 20.3416 10.3565 20.3624C10.4015 20.3832 10.4505 20.394 10.5 20.394C10.5495 20.394 10.5985 20.3832 10.6435 20.3624C10.6884 20.3416 10.7283 20.3112 10.7604 20.2734C11.6629 19.1743 12.4999 18.023 13.267 16.8254C17.2318 17.2615 20.09 18.6055 20.09 20.0516C20.0898 21.6813 16.2365 23.4264 10.5 23.4264Z" fill="white"/>
<path d="M13.3859 7.23042C13.3859 6.65956 13.2165 6.10155 12.8993 5.62695C12.5821 5.15234 12.1313 4.78245 11.6038 4.56406C11.0764 4.34567 10.4961 4.28858 9.9362 4.40001C9.37633 4.51143 8.86207 4.78638 8.45846 5.19008C8.05485 5.59377 7.78001 6.10808 7.66869 6.66798C7.55737 7.22787 7.61458 7.8082 7.83308 8.33558C8.05158 8.86296 8.42156 9.31371 8.89623 9.63082C9.3709 9.94793 9.92895 10.1172 10.4998 10.1171C11.2651 10.1162 11.9987 9.81175 12.5398 9.27057C13.0809 8.72939 13.3852 7.99568 13.3859 7.23042ZM8.29707 7.23042C8.29715 6.79477 8.4264 6.36894 8.66849 6.00675C8.91057 5.64457 9.25462 5.3623 9.65712 5.19564C10.0596 5.02898 10.5025 4.98541 10.9298 5.07045C11.357 5.15549 11.7495 5.36531 12.0575 5.67338C12.3655 5.98145 12.5753 6.37394 12.6602 6.80122C12.7452 7.2285 12.7016 7.67137 12.5348 8.07385C12.3681 8.47632 12.0858 8.82031 11.7235 9.06234C11.3613 9.30436 10.9354 9.43354 10.4998 9.43354C9.91572 9.43292 9.35575 9.20059 8.94278 8.78755C8.52981 8.37451 8.29759 7.81449 8.29707 7.23042Z" fill="white"/>
</svg>
