<svg width="16" height="16" viewBox="0 0 16 16" fill="none" xmlns="http://www.w3.org/2000/svg">
<path d="M10.7826 6.26086C10.9746 6.26086 11.1304 6.10502 11.1304 5.91302V1.73912C11.1304 0.780521 10.3506 0 9.39129 0H1.73912C0.779836 0 0 0.780521 0 1.73912V14.2608C0 15.2194 0.779836 16 1.73912 16H9.39129C10.3506 16 11.1304 15.2194 11.1304 14.2608V10.0869C11.1304 9.89493 10.9746 9.7391 10.7826 9.7391C10.5906 9.7391 10.4348 9.89493 10.4348 10.0869V14.2608C10.4348 14.8362 9.96661 15.3043 9.39129 15.3043H1.73912C1.1638 15.3043 0.69564 14.8362 0.69564 14.2608V1.73912C0.69564 1.1638 1.1638 0.69564 1.73912 0.69564H9.39129C9.96661 0.69564 10.4348 1.1638 10.4348 1.73912V5.91302C10.4348 6.10502 10.5906 6.26086 10.7826 6.26086Z" fill="#A0A0A0"/>
<path d="M15.6521 7.65234H4.52166C4.32967 7.65234 4.17383 7.80818 4.17383 8.00018C4.17383 8.19218 4.32967 8.34798 4.52166 8.34798H15.6521C15.8441 8.34798 15.9999 8.19215 15.9999 8.00015C15.9999 7.80815 15.8441 7.65234 15.6521 7.65234Z" fill="#A0A0A0"/>
<path d="M15.8973 7.7551L13.8104 5.66815C13.6747 5.53249 13.4542 5.53249 13.3185 5.66815C13.1829 5.8038 13.1829 6.02433 13.3185 6.15998L15.1592 8.00067L13.3185 9.84137C13.1829 9.97702 13.1829 10.1976 13.3185 10.3332C13.3867 10.4007 13.4757 10.4348 13.5648 10.4348C13.6539 10.4348 13.7429 10.4007 13.8104 10.3339L15.8973 8.24697C16.033 8.11128 16.033 7.89075 15.8973 7.7551Z" fill="#A0A0A0"/>
</svg>
