<svg width="24" height="22" viewBox="0 0 24 22" fill="none" xmlns="http://www.w3.org/2000/svg">
<path d="M22.9219 5.32865H19.1869L18.7813 3.34359C18.6082 2.50853 18.1531 1.75842 17.4925 1.21914C16.8318 0.679859 16.0058 0.38422 15.153 0.381836H8.847C7.99409 0.384256 7.16797 0.680002 6.5073 1.21943C5.84664 1.75886 5.39164 2.50914 5.21869 3.34434L4.81313 5.32865H1.07812C0.792392 5.32899 0.518454 5.44262 0.316357 5.64461C0.114261 5.8466 0.000496112 6.12048 0 6.40621L0 20.54C0.000297807 20.8258 0.113981 21.0999 0.316104 21.302C0.518228 21.5041 0.79228 21.6178 1.07812 21.6181H22.9219C23.2077 21.6178 23.4818 21.5041 23.6839 21.302C23.886 21.0999 23.9997 20.8258 24 20.54V6.40621C23.9995 6.12048 23.8857 5.8466 23.6836 5.64461C23.4815 5.44262 23.2076 5.32899 22.9219 5.32865ZM5.86181 3.47502C6.00409 2.78785 6.37842 2.17053 6.92199 1.72669C7.46555 1.28286 8.14525 1.03952 8.847 1.03752H15.153C15.8547 1.03952 16.5344 1.28286 17.078 1.72669C17.6216 2.17053 17.9959 2.78785 18.1382 3.47502L18.5171 5.32884H17.6559L17.3117 3.64396C17.2088 3.14706 16.9381 2.70068 16.545 2.37975C16.1519 2.05882 15.6604 1.88288 15.153 1.88146H8.847C8.33956 1.88288 7.84805 2.05882 7.45498 2.37975C7.06191 2.70068 6.79121 3.14706 6.68831 3.64396L6.34406 5.32884H5.48287L5.86181 3.47502ZM16.986 5.32865H7.014L7.33125 3.77521C7.40347 3.42633 7.59351 3.11291 7.86948 2.88758C8.14545 2.66224 8.49054 2.53871 8.84681 2.53771H15.153C15.5093 2.53871 15.8544 2.66224 16.1303 2.88758C16.4063 3.11291 16.5963 3.42633 16.6686 3.77521L16.986 5.32865ZM0.65625 6.40621C0.656399 6.29437 0.700894 6.18715 0.779979 6.10806C0.859063 6.02898 0.966282 5.98448 1.07812 5.98434H22.9219C23.0337 5.98448 23.1409 6.02898 23.22 6.10806C23.2991 6.18715 23.3436 6.29437 23.3438 6.40621V10.025C23.3428 10.8328 23.0215 11.6072 22.4503 12.1784C21.8791 12.7496 21.1047 13.0709 20.2969 13.0718H3.70312C2.89533 13.0709 2.1209 12.7496 1.5497 12.1784C0.978505 11.6072 0.657193 10.8328 0.65625 10.025V6.40621ZM16.6522 13.7281H18.3866V15.6406C18.3866 15.7027 18.3619 15.7623 18.3179 15.8063C18.274 15.8502 18.2144 15.8749 18.1522 15.875H16.8866C16.8245 15.8749 16.7649 15.8501 16.721 15.8062C16.6771 15.7623 16.6523 15.7027 16.6522 15.6406V13.7281ZM5.61319 13.7281H7.34756V15.6406C7.34751 15.7027 7.3228 15.7623 7.27886 15.8063C7.23492 15.8502 7.17533 15.8749 7.11319 15.875H5.84756C5.78543 15.8749 5.72588 15.8501 5.68194 15.8062C5.63801 15.7623 5.61329 15.7027 5.61319 15.6406V13.7281ZM23.3438 20.54C23.3436 20.6518 23.2991 20.759 23.22 20.8381C23.1409 20.9172 23.0337 20.9617 22.9219 20.9618H1.07812C0.966282 20.9617 0.859063 20.9172 0.779979 20.8381C0.700894 20.759 0.656399 20.6518 0.65625 20.54V12.125C0.996171 12.6191 1.45111 13.0232 1.98188 13.3025C2.51266 13.5817 3.10336 13.7278 3.70312 13.7281H4.95694V15.6406C4.95724 15.8767 5.05116 16.1031 5.21812 16.27C5.38508 16.437 5.61145 16.5309 5.84756 16.5312H7.11319C7.34932 16.531 7.57571 16.437 7.74268 16.2701C7.90965 16.1031 8.00356 15.8767 8.00381 15.6406V13.7281H15.996V15.6406C15.9963 15.8767 16.0902 16.1031 16.2572 16.27C16.4241 16.437 16.6505 16.5309 16.8866 16.5312H18.1522C18.3884 16.531 18.6148 16.437 18.7817 16.2701C18.9487 16.1031 19.0426 15.8767 19.0429 15.6406V13.7281H20.2969C20.8966 13.7278 21.4873 13.5817 22.0181 13.3025C22.5489 13.0232 23.0038 12.6191 23.3438 12.125V20.54Z" fill="white"/>
</svg>
