<svg width="42" height="66" viewBox="0 0 42 66" fill="none" xmlns="http://www.w3.org/2000/svg">
<g clip-path="url(#clip0)">
<path d="M37.51 30.0821C36.5429 30.0821 35.5758 30.4295 34.8159 31.0547V30.9158C34.8159 28.4842 32.8126 26.4695 30.3948 26.4695C29.4277 26.4695 28.4606 26.8168 27.7008 27.4421V27.3032C27.7008 24.8716 25.6975 22.8568 23.2797 22.8568C22.3126 22.8568 21.3455 23.2042 20.5856 23.8295V14.7284C20.5856 12.2968 18.5823 10.2821 16.1646 10.2821C13.7468 10.2821 11.7435 12.2968 11.7435 14.7284V39.3221C9.32577 34.8063 6.49353 33.5558 4.83564 33.2084C3.24682 32.8611 1.72708 33.2084 1.03629 34.1116C-1.38147 36.8211 1.38169 40.3642 2.34879 41.4758C4.83564 44.6021 5.80274 47.5895 6.76985 50.4379C8.01327 54.12 9.25669 57.8716 13.4014 61.6926C16.51 64.4716 20.5856 66 24.7304 66C35.2304 66 42.0001 56.8989 42.0001 42.7958V34.5284C42.0001 32.0968 39.9968 30.0821 37.51 30.0821ZM40.2731 42.7958C40.2731 56.0653 34.3323 64.3326 24.7304 64.3326C21.0001 64.3326 17.3389 62.9432 14.5067 60.5116C10.7073 57.0379 9.533 53.6337 8.35866 50.0211C7.32248 46.9642 6.28629 43.8379 3.59221 40.5032C0.759977 36.8905 1.72708 35.7095 2.07248 35.3621C2.69419 34.9453 3.52314 34.8063 4.283 35.0147C5.66458 35.2926 9.18761 36.6821 11.6054 43.9074C11.6054 43.9768 11.6745 44.0463 11.6745 44.0463C11.6745 44.1158 11.7435 44.1158 11.7435 44.1853C11.8126 44.2547 11.8817 44.3242 12.0198 44.3937C12.0889 44.3937 12.0889 44.3937 12.158 44.4632C12.2271 44.4632 12.2962 44.4632 12.3652 44.5326C12.4343 44.5326 12.4343 44.5326 12.5034 44.5326C12.5725 44.5326 12.5725 44.5326 12.6416 44.5326C12.7106 44.5326 12.7797 44.4632 12.7797 44.4632C12.8488 44.4632 12.8488 44.3937 12.9179 44.3937C12.987 44.3242 12.987 44.3242 12.987 44.2547C13.056 44.1853 13.1251 44.1158 13.1251 43.9768C13.1251 43.9074 13.1251 43.8379 13.1942 43.7684V14.7284C13.1942 13.2 14.4376 11.9495 15.9573 11.9495C17.4771 11.9495 18.7205 13.2 18.7205 14.7284V36.3347C18.7205 36.8211 19.135 37.1684 19.6185 37.1684C20.1021 37.1684 20.4475 36.8211 20.4475 36.3347V27.3032C20.4475 25.7747 21.6909 24.5242 23.2106 24.5242C24.7304 24.5242 25.9738 25.7747 25.9738 27.3032V36.3347C25.9738 36.8211 26.3883 37.1684 26.8718 37.1684C27.3554 37.1684 27.7008 36.8211 27.7008 36.3347V30.9158C27.7008 29.3874 28.9442 28.1368 30.4639 28.1368C31.9837 28.1368 33.2271 29.3874 33.2271 30.9158V38.2105C33.2271 38.6968 33.6416 39.0442 34.056 39.0442C34.4705 39.0442 34.885 38.6274 34.885 38.2105V34.5979C34.885 33.0695 36.1284 31.8189 37.5791 31.8189C39.0988 31.8189 40.3422 33.0695 40.3422 34.5979L40.2731 42.7958Z" fill="white"/>
<path d="M8.63496 27.4421C9.04944 27.6505 9.53299 27.581 9.80931 27.1642C10.0856 26.7473 9.94746 26.261 9.53299 25.9831C3.31589 22.3705 1.24352 14.381 4.83562 8.1284C8.42773 1.87577 16.4409 -0.208445 22.5889 3.47366C28.7369 7.15577 30.8784 15.0758 27.2172 21.3284C27.1481 21.3979 27.079 21.5368 27.01 21.6063C26.7336 22.0231 26.8718 22.5095 27.2863 22.7873C27.7008 23.0652 28.1843 22.9263 28.4606 22.5095C32.7435 15.5621 30.6021 6.5305 23.6942 2.22313C16.7863 -2.08423 7.8751 0.0694499 3.5922 6.94734C-0.690693 13.8252 1.45075 22.9263 8.35865 27.2337C8.42773 27.3031 8.56589 27.3726 8.63496 27.4421Z" fill="white"/>
</g>
<defs>
<clipPath id="clip0">
<rect width="42" height="66" fill="white"/>
</clipPath>
</defs>
</svg>
