<svg width="512" height="390" viewBox="0 0 512 390" fill="none" xmlns="http://www.w3.org/2000/svg">
<path d="M467 0H45C20.218 0 0 20.196 0 45V345C0 369.72 20.128 390 45 390H467C491.72 390 512 369.872 512 345V45C512 20.28 491.872 0 467 0ZM460.786 30L256.954 233.833L51.359 30H460.786ZM30 338.788V51.069L174.479 194.309L30 338.788ZM51.213 360L195.783 215.43L246.44 265.652C252.304 271.466 261.767 271.447 267.607 265.606L317 216.213L460.787 360H51.213ZM482 338.787L338.213 195L482 51.212V338.787Z" fill="white"/>
</svg>
